<?xml version="1.0" encoding="UTF-8"?>
<svg xmlns="http://www.w3.org/2000/svg" xmlns:xlink="http://www.w3.org/1999/xlink" width="32px" height="32px" viewBox="0 0 32 32" version="1.1">
<g id="surface1">
<path style=" stroke:none;fill-rule:nonzero;fill:rgb(92.941176%,42.352941%,0.784314%);fill-opacity:1;" d="M 16 17.199219 L 13.160156 19.988281 C 12.414062 20.734375 12 21.707031 12 22.746094 C 12 24.90625 13.800781 26.667969 16 26.667969 C 18.199219 26.667969 20 24.90625 20 22.746094 C 20 21.707031 19.585938 20.71875 18.839844 19.988281 Z M 16 17.199219 "/>
<path style=" stroke:none;fill-rule:nonzero;fill:rgb(92.941176%,42.352941%,0.784314%);fill-opacity:1;" d="M 21.332031 8 L 20.746094 8.734375 C 19.171875 10.691406 16 9.585938 16 7.066406 L 16 2.667969 C 16 2.667969 5.332031 8 5.332031 17.332031 C 5.332031 21.226562 7.414062 24.625 10.519531 26.480469 C 9.773438 25.425781 9.332031 24.132812 9.332031 22.746094 C 9.332031 20.988281 10.027344 19.332031 11.292969 18.078125 L 16 13.464844 L 20.707031 18.09375 C 21.972656 19.332031 22.667969 20.988281 22.667969 22.761719 C 22.667969 24.121094 22.253906 25.375 21.535156 26.425781 C 24.054688 24.894531 25.921875 22.347656 26.480469 19.359375 C 27.359375 14.625 25.054688 10.160156 21.332031 8 Z M 21.332031 8 "/>
</g>
</svg>
